<?xml version="1.0" encoding="utf-8"?>
<!DOCTYPE svg PUBLIC "-//W3C//DTD SVG 1.0//EN" "http://www.w3.org/TR/2001/REC-SVG-20010904/DTD/svg10.dtd">
<svg version="1.0" xmlns="http://www.w3.org/2000/svg" width="500px" height="500px" viewBox="0 0 500 500" preserveAspectRatio="xMidYMid meet">
 <g fill="#3a9b3f">
  <path d="M142.5 351.4 c-3 -2.6 -3 -2.6 -3 -70.2 0 -76.7 -0.5 -71.6 8.5 -89.4 12.2 -24.1 35.7 -41.4 63 -46.4 9.2 -1.7 70.6 -2 77.8 -0.4 2.6 0.6 7 1.5 9.7 2.1 7.7 1.7 20.9 8.3 28 13.9 27.2 21.7 37.4 47.5 34.5 87.7 -0.6 7.6 -1.4 14.9 -1.9 16.3 -0.5 1.4 -1.5 4.5 -2.2 7 -1.9 6.5 -8.3 18.6 -13.1 24.8 -7.3 9.5 -19.3 19.8 -28.7 24.6 -18.7 9.6 -28.3 10.9 -79.6 10.4 -43.6 -0.3 -37.4 -1.7 -71.5 16.2 -13.1 6.9 -16.8 7.5 -21.5 3.4z m36.3 -35.8 c5.9 -3 12.2 -5.9 14.1 -6.5 2.2 -0.7 18.4 -1.1 47.8 -1.1 41.4 0 44.8 -0.1 51.9 -2 10.1 -2.7 17.8 -6.9 25.3 -13.7 5.2 -4.7 14.1 -15.9 14.1 -17.8 0 -0.3 0.8 -2.4 1.9 -4.8 3.6 -8.1 4.1 -12.3 4.1 -31.8 0 -19.8 -0.4 -22.4 -4.6 -32.9 -6.3 -15.8 -21.9 -29.9 -38.9 -35.3 -6.7 -2.1 -8.6 -2.2 -43.5 -2.2 -38.3 0 -41.7 0.3 -52 4.8 -10.3 4.5 -23.8 16.3 -29.3 25.8 -1.5 2.5 -3.9 7.6 -5.4 11.5 -2.6 6.9 -2.6 6.9 -3.1 57.1 -0.2 35.7 0 50.7 0.8 52.2 1.7 3.3 5.3 2.6 16.8 -3.3z"/>
  <path d="M232.5 278.1 c-5.3 -3.3 -33.3 -32.4 -34 -35.3 -0.9 -3.7 0 -7.1 2.9 -10.5 2.1 -2.4 3.2 -2.8 7.5 -2.8 5.1 0 5.1 0 16.3 11.3 7.6 7.5 12.1 11.2 13.6 11.2 1.5 0 9 -6.9 25.4 -23.5 23.3 -23.5 23.3 -23.5 28.2 -23.5 4.1 0 5.3 0.5 8.2 3.4 2.8 2.8 3.4 4.2 3.4 7.6 0 3.7 -0.6 4.8 -5.5 9.9 -12.9 13.6 -51.7 51.7 -53.8 52.8 -3.3 1.8 -8.8 1.6 -12.2 -0.6z"/>
 </g>
</svg>